<svg xmlns="http://www.w3.org/2000/svg" viewBox="0 0 402.09 494.87"><defs><style>.cls-1,.cls-2,.cls-3,.cls-5,.cls-7{fill:none;stroke-miterlimit:10;}.cls-1,.cls-2,.cls-3{stroke:#9a6135;stroke-width:4.21px;}.cls-2{stroke-dasharray:12.62;}.cls-3{stroke-dasharray:9.56;}.cls-4{fill:#9a6135;}.cls-5,.cls-7{stroke:#9a6235;}.cls-5{stroke-width:1.54px;}.cls-6{fill:#9a6235;}.cls-7{stroke-width:1.66px;}</style></defs><g id="Layer_2" data-name="Layer 2"><g id="Layer_1-2" data-name="Layer 1"><path class="cls-1" d="M169.75,277.74l-.19,31.82-12.78-7.46-2.36-15c-3.82,2.46-28,18.34-29.59,37.19-.18,2.09.38,6.65,3.73,9.12,4.52,3.33,11.23.37,12,0l14.94,8.72c-1.08,1-14,12.05-29.32,7.67A29.13,29.13,0,0,1,112.4,341,27.77,27.77,0,0,1,107,329.52c-4-19.52,14.73-43.27,46.87-60.41"/><path class="cls-1" d="M236.36,111.78l.2-31.81,12.78,7.45,2.36,15c3.82-2.46,28-18.33,29.59-37.19.17-2.08-.38-6.64-3.74-9.12-4.51-3.33-11.23-.36-11.95,0l-14.94-8.72c1.08-1,14-12.05,29.32-7.66a29,29,0,0,1,13.73,8.89A27.71,27.71,0,0,1,299.09,60c4,19.52-14.73,43.27-46.87,60.41"/><path class="cls-1" d="M120.26,161.43l-31.82-.19,7.46-12.78,15-2.36c-2.46-3.82-18.34-28-37.19-29.59-2.09-.18-6.65.38-9.12,3.73-3.33,4.52-.37,11.23,0,12l-8.72,14.94c-1-1.08-12-14-7.67-29.32a29.13,29.13,0,0,1,8.9-13.74,27.8,27.8,0,0,1,11.44-5.37c19.51-4,43.26,14.73,60.4,46.87"/><path class="cls-1" d="M286.37,228.06l31.81.19L310.73,241l-15,2.36c2.46,3.82,18.33,28,37.19,29.59,2.08.18,6.64-.38,9.12-3.73,3.33-4.52.36-11.23,0-12l8.72-14.94c1,1.08,12.05,14,7.66,29.32a29.05,29.05,0,0,1-8.89,13.74,27.8,27.8,0,0,1-11.44,5.37c-19.52,4-43.27-14.73-60.41-46.87l14.07-2.66"/><path class="cls-1" d="M275.21,232.58a371,371,0,0,0-108.76,33.85,370.33,370.33,0,0,0-12.69-55.55,370.23,370.23,0,0,0-21.16-53.2,371.45,371.45,0,0,0,52.78-11.85,371.36,371.36,0,0,0,56-22,400.6,400.6,0,0,0,33.85,108.76Z"/><path class="cls-1" d="M289.29,235.89c.84,1.82,1.67,3.6,2.51,5.36a462.09,462.09,0,0,0-135.21,42.08,462.25,462.25,0,0,0-15.78-69.06,463.18,463.18,0,0,0-26.31-66.15,462.36,462.36,0,0,0,65.62-14.72A462.11,462.11,0,0,0,249.71,106a497.43,497.43,0,0,0,39.58,129.85"/><polyline class="cls-1" points="84.33 121.14 11.65 245.7 112.64 304.62"/><polyline class="cls-1" points="93.95 104.65 153.33 2.88 278.15 75.7"/><polyline class="cls-1" points="293.59 84.71 396.15 144.55 322.92 270.08"/><polyline class="cls-1" points="127.77 313.45 254.48 387.38 313.89 285.55"/><path class="cls-2" d="M123.78,285.55C97.16,270,68.27,253.34,41.65,237.81l42.29-69.64"/><polyline class="cls-2" points="113.23 115.12 161.22 32.88 231.13 73.67"/><path class="cls-2" d="M362.58,158.56c-15.29,27-22.92,38.83-37.95,65.06"/><path class="cls-2" d="M282.82,103.82c27,16.45,54.56,31.8,81.1,47.32"/><polyline class="cls-2" points="295.59 275.77 246.59 357.38 178.13 317.44"/><line class="cls-3" x1="153.98" y1="4.97" x2="161.25" y2="32.63"/><line class="cls-3" x1="13.57" y1="244.88" x2="41.75" y2="239.01"/><line class="cls-3" x1="394.55" y1="144.19" x2="367.12" y2="152.27"/><line class="cls-3" x1="254.28" y1="384.23" x2="247.36" y2="356.49"/><path class="cls-4" d="M156.78,482.16c-1.82,1.81-3.39,3.31-4.73,4.5s-3,2.49-5,3.93a24.39,24.39,0,0,1-6,3.25,16.7,16.7,0,0,1-6.13,1,9.91,9.91,0,0,1-5.86-1.78,12.8,12.8,0,0,1-4-4.61,30.4,30.4,0,0,1-2.3-5.78,34,34,0,0,1-1.13-6.13,54.89,54.89,0,0,1,.41-13.91,162.3,162.3,0,0,1,3.44-16.18,144.5,144.5,0,0,1,9.75-27,115,115,0,0,1,15.58-24.34q11.94-14,22.91-15.65a10.94,10.94,0,0,1,6.31.79,8.4,8.4,0,0,1,4.35,4.27q2.19,4.84-.08,11.27a25.62,25.62,0,0,1-6.73,10.43q-6.27,6-10.73,4.23a2.09,2.09,0,0,1-1.48-1.85,2.58,2.58,0,0,1,.91-2.23,2.17,2.17,0,0,1,2.38-.38c1,.41,2.77-.65,5.45-3.17A19.75,19.75,0,0,0,178,398a18.91,18.91,0,0,0,1.47-3.29,15.28,15.28,0,0,0,.72-3.78,5.1,5.1,0,0,0-.83-3.44,3,3,0,0,0-2.05-1.44,5.4,5.4,0,0,0-3,.53,29.29,29.29,0,0,0-2.65,1.29c-.6.35-1.38.86-2.34,1.51a50.51,50.51,0,0,0-9.75,8.39q-15,16.64-23.36,41.13a184.51,184.51,0,0,0-6.2,23.67q-.69,3.62-1,6.08t-.61,5.94a28.09,28.09,0,0,0,.23,6.54,19.63,19.63,0,0,0,1.7,5.56,9.79,9.79,0,0,0,2.72,3.66,5.69,5.69,0,0,0,3.44,1.29,13,13,0,0,0,3.89-.57,15.59,15.59,0,0,0,4.28-2.12c1.48-1,2.92-2,4.3-3.13a43.52,43.52,0,0,0,4.28-3.9q2.19-2.26,4-4.16c1.18-1.26,2.37-2.62,3.55-4.08l2.84-3.51,2-2.61c1.36-1.82,2.78-3.78,4.27-5.9s3.11-4.46,4.87-7,3.15-4.56,4.16-6l1.59-2.26,1.78-2.54,1.62-2.26q1.29-1.78,1.89-2.46c.41-.45,1-1.17,1.82-2.16a29.39,29.39,0,0,1,2-2.3c.55-.56,1.22-1.19,2-1.89s1.55-1.36,2.31-2a1.5,1.5,0,0,1,.79-.22,1,1,0,0,1,.72.26,1.93,1.93,0,0,1,.46.61,1.34,1.34,0,0,1,.07.75,1.17,1.17,0,0,1-.45.72c-1.06.86-2.07,1.75-3,2.68a39.53,39.53,0,0,0-3.17,3.56c-1.16,1.43-1.94,2.44-2.35,3s-1.28,1.8-2.64,3.67q-2.51,3.31-8.77,12.4c-2.42,3.47-4.41,6.3-6,8.46s-3.53,4.72-5.89,7.64S159,479.89,156.78,482.16Z"/><path class="cls-4" d="M221.42,431.05c.75-.4,1.31-.18,1.66.68a1.57,1.57,0,0,1-.6,1.81,41,41,0,0,1-13,4.69,27.07,27.07,0,0,1-6.27,11.42,17.66,17.66,0,0,1-5.18,3.82,7.89,7.89,0,0,1-5.64.64,5.78,5.78,0,0,1-3-1.89,6.4,6.4,0,0,1-1.36-3.14,14.78,14.78,0,0,1-.12-3.51,17.83,17.83,0,0,1,.68-3.48,33.77,33.77,0,0,1,2.8-6.88,7.61,7.61,0,0,1-2-5.26,11.76,11.76,0,0,1,1.47-5.74,16.09,16.09,0,0,1,4-4.73,10.45,10.45,0,0,1,5.14-2.42,8.65,8.65,0,0,1,5.1.57,7.2,7.2,0,0,1,3.29,3,15.11,15.11,0,0,1,1.67,4.61,25,25,0,0,1,.49,5.18,36.44,36.44,0,0,1-.42,4.95A38.56,38.56,0,0,0,221.42,431.05Zm-14.14,4.76q1.89-7.86-.45-12.55-2.58-5.07-7.34-3.4a11.31,11.31,0,0,0-6,5.44q-2.49,4.32-.6,7.41a53.72,53.72,0,0,1,3.47-4.91,3.82,3.82,0,0,1,2.72-1.48,3.53,3.53,0,0,1,2.69.87,5.41,5.41,0,0,1,1.55,2.42,3.38,3.38,0,0,1-.68,3c-.3.45-.75,1.07-1.33,1.85s-1,1.35-1.24,1.7A34,34,0,0,0,207.28,435.81Zm-7.18,13a21.91,21.91,0,0,0,6.42-10.21,9.23,9.23,0,0,1-1.13.08,34.68,34.68,0,0,1-7-.08,33.21,33.21,0,0,0-3,5.44,7,7,0,0,1-.42.95,14.13,14.13,0,0,0-.56,1.32c-.11.3-.24.72-.42,1.25a3.68,3.68,0,0,0-.23,1.36,2.1,2.1,0,0,0,.34,1,1.89,1.89,0,0,0,1.93.72,7,7,0,0,0,2.23-.72A16.08,16.08,0,0,0,200.1,448.82Z"/><path class="cls-4" d="M255.06,432.11c.36-.61.86-.71,1.52-.31a1.06,1.06,0,0,1,.52,1.52,59.16,59.16,0,0,1-8.39,12.47q-5.6,6.34-8.92,3.63-4-3.26-1.44-13.91a16.41,16.41,0,0,1,.46-1.74q-1.29,2.19-3.48,6.12c-.05.11-.4.77-1.06,2s-1.1,2-1.32,2.42-.7,1.06-1.4,2a8.88,8.88,0,0,1-1.81,2,14,14,0,0,1-2,1.1,5.8,5.8,0,0,1-2.5.56,4.91,4.91,0,0,1-3.55-1.51,6.53,6.53,0,0,1-1.7-3.59,19.9,19.9,0,0,1-.23-4.19,23.69,23.69,0,0,1,.5-3.78,52.16,52.16,0,0,1,7.55-17.17,2.79,2.79,0,0,1,2.2-1.43,3.66,3.66,0,0,1,2.53.6,5.3,5.3,0,0,1,1.7,1.89,2.65,2.65,0,0,1-.15,2.57,108.67,108.67,0,0,0-6.5,13.38,31.71,31.71,0,0,0-1.82,6.88c-.15,1.47,0,2.35.61,2.65a1.88,1.88,0,0,0,.3.12.76.76,0,0,0,.3,0l.31-.08a1.05,1.05,0,0,0,.3-.15l.22-.19c.06,0,.14-.14.27-.27l.26-.26a2.15,2.15,0,0,0,.23-.3c.1-.15.18-.23.23-.23.91-1.21,1.81-2.54,2.72-4s1.85-3.11,2.84-4.95,1.77-3.24,2.38-4.2q2-3.24,3.93-6.12c.15-.25.38-.59.68-1s.55-.81.75-1.13.44-.68.72-1.06a8.93,8.93,0,0,1,.87-1c.31-.31.61-.58.91-.83a3,3,0,0,1,2.27-1.22,3.78,3.78,0,0,1,2.42.68,5.31,5.31,0,0,1,1.66,2,2.92,2.92,0,0,1-.07,2.65c-.06.15-.36.79-.91,1.93s-.88,1.82-1,2.07-.4.9-.9,1.93-.83,1.74-1,2.12-.42,1.05-.8,2-.66,1.68-.83,2.16-.42,1.15-.72,2-.53,1.59-.68,2.19-.31,1.29-.49,2-.32,1.48-.42,2.19c-.05.4-.1.83-.15,1.28-.2.91,0,1,.53.15a8.67,8.67,0,0,0,2.19-1.81,38.29,38.29,0,0,0,3.18-3.78A76.71,76.71,0,0,0,255.06,432.11Z"/><path class="cls-4" d="M279,432.41a1.18,1.18,0,0,1,1.1-.34,1.12,1.12,0,0,1,.87.64,1.18,1.18,0,0,1-.16,1.14q-2.41,3.09-5,7.07t-5.25,8.35q-2.69,4.38-4.73,7.26a22.69,22.69,0,0,1-1.89,2.53,9.13,9.13,0,0,1-2.26,1.78,5.47,5.47,0,0,1-3,.75q-4.16-.22-5.44-8a29.94,29.94,0,0,1-.42-4.46,29.61,29.61,0,0,1,.3-4.58q.35-2.3.72-4.38a41.65,41.65,0,0,1,1.14-4.57c.5-1.67.94-3.08,1.32-4.24s.87-2.57,1.47-4.23a138.24,138.24,0,0,1,5.9-14.44c-1.06-.05-1.86-.08-2.42-.08s-1-.36-.94-1.1a1.13,1.13,0,0,1,1-1.24,28.42,28.42,0,0,1,3.78-.38,82.17,82.17,0,0,1,4.76-8.09,3.23,3.23,0,0,1,2.31-1.55,3.4,3.4,0,0,1,2.53.61,5.52,5.52,0,0,1,1.78,2,3,3,0,0,1,0,2.72c-.66,1.41-1.41,3.05-2.27,4.91l2.57.46a1.38,1.38,0,0,1,.83,2.19,1.11,1.11,0,0,1-1.21.45c-1.06-.15-2.19-.3-3.4-.45q-2.94,6.19-4.12,8.81c-.78,1.74-1.89,4.34-3.33,7.82a86.76,86.76,0,0,0-3.36,9.53,73.88,73.88,0,0,0-1.89,8.62,34.44,34.44,0,0,0-.61,5.82c0,.1,0,.26,0,.49a5.17,5.17,0,0,0,0,.68c0,.23,0,.49,0,.8a5.74,5.74,0,0,0,0,.83c0,.25.05.5.08.75a1.94,1.94,0,0,0,.15.65.64.64,0,0,0,.26.34,1.26,1.26,0,0,0,.61,0,2,2,0,0,0,.75-.5,8.5,8.5,0,0,0,.84-.86l.9-1.14c.35-.45.67-.88,1-1.28s.55-.83.83-1.29.51-.84.72-1.17.4-.64.6-.95.33-.5.38-.6q.9-1.37,2.87-4.5c1.31-2.09,2.35-3.72,3.1-4.88s1.73-2.57,2.91-4.23A55.63,55.63,0,0,1,279,432.41Z"/><path class="cls-4" d="M313,432.11c.36-.61.86-.71,1.52-.31a1.06,1.06,0,0,1,.52,1.52,59.16,59.16,0,0,1-8.39,12.47q-5.6,6.34-8.92,3.63-4-3.26-1.44-13.91c.11-.5.26-1.08.46-1.74q-1.29,2.19-3.48,6.12c-.05.11-.4.77-1.06,2s-1.09,2-1.32,2.42-.69,1.06-1.4,2a8.88,8.88,0,0,1-1.81,2,14,14,0,0,1-2,1.1,5.79,5.79,0,0,1-2.49.56,4.91,4.91,0,0,1-3.56-1.51,6.53,6.53,0,0,1-1.7-3.59,19.9,19.9,0,0,1-.23-4.19,23.69,23.69,0,0,1,.5-3.78,52,52,0,0,1,7.56-17.17,2.76,2.76,0,0,1,2.19-1.43,3.66,3.66,0,0,1,2.53.6,5.3,5.3,0,0,1,1.7,1.89,2.65,2.65,0,0,1-.15,2.57,108.67,108.67,0,0,0-6.5,13.38,31.71,31.71,0,0,0-1.82,6.88c-.15,1.47.05,2.35.61,2.65a1.88,1.88,0,0,0,.3.12.76.76,0,0,0,.3,0l.31-.08a1.05,1.05,0,0,0,.3-.15l.23-.19.26-.27.27-.26c0-.05.12-.15.22-.3s.18-.23.23-.23c.91-1.21,1.81-2.54,2.72-4s1.85-3.11,2.84-4.95,1.77-3.24,2.38-4.2q2-3.24,3.93-6.12c.15-.25.38-.59.68-1s.55-.81.75-1.13.45-.68.72-1.06a8.93,8.93,0,0,1,.87-1c.31-.31.61-.58.91-.83a3,3,0,0,1,2.27-1.22,3.78,3.78,0,0,1,2.42.68,5.31,5.31,0,0,1,1.66,2,2.92,2.92,0,0,1-.07,2.65c-.06.15-.36.79-.91,1.93s-.88,1.82-1,2.07-.41.9-.91,1.93-.83,1.74-1,2.12-.42,1.05-.8,2-.65,1.68-.83,2.16-.42,1.15-.72,2-.53,1.59-.68,2.19-.31,1.29-.49,2-.32,1.48-.42,2.19c-.05.4-.1.83-.15,1.28-.2.91,0,1,.53.15a8.49,8.49,0,0,0,2.19-1.81,38.29,38.29,0,0,0,3.18-3.78A75.51,75.51,0,0,0,313,432.11Z"/><path class="cls-4" d="M346.39,432.33a1.06,1.06,0,0,1,1.1.5,1.23,1.23,0,0,1,.11,1.13,1,1,0,0,1-.91.64,10.82,10.82,0,0,0-3.32,1.1c-1.31.63-2.54,1.28-3.67,2a33.44,33.44,0,0,1-3.74,1.93,9,9,0,0,1-3.63.91,6.18,6.18,0,0,1-3.33-1.13,5.29,5.29,0,0,1-1.89-2.65,6.36,6.36,0,0,1-.23-2.87,11.61,11.61,0,0,1,1.18-3.25,27.49,27.49,0,0,1,1.74-3.07c.52-.78,1.22-1.75,2.07-2.91a29.18,29.18,0,0,0-3.1,2.5c-1.36,1.31-2.94,3-4.76,5.14a72.41,72.41,0,0,0-6.12,8.39,76.46,76.46,0,0,1-3.63,8,3.08,3.08,0,0,1-2,1.48,2.32,2.32,0,0,1-2.15-.57,2.66,2.66,0,0,1-.87-2.27c.15-3.42,1.43-8.14,3.85-14.13a81,81,0,0,1,6.73-13.09,3.1,3.1,0,0,1,2.23-1.47,3.49,3.49,0,0,1,2.5.57,5.48,5.48,0,0,1,1.74,1.93,2.64,2.64,0,0,1-.12,2.61q-.52,1-2.42,4.53l1.06-1.13a3.35,3.35,0,0,0,.31-.38c.6-.61,1.1-1.1,1.51-1.47l1.77-1.67a12.14,12.14,0,0,1,2.08-1.62,16.15,16.15,0,0,1,2-1,3.43,3.43,0,0,1,2.08-.22,3.19,3.19,0,0,1,1.7,1.13q1.67,2-.37,7.11c-.15.4-.36.94-.61,1.62s-.48,1.28-.68,1.78-.41,1.06-.64,1.66a17.22,17.22,0,0,1-.76,1.74c-.28.56-.54,1.06-.79,1.51a2.9,2.9,0,0,1-.61.76c-.25.2-.35.33-.3.38l.91-.38.91-.34c.35-.13.71-.24,1.09-.34a3.83,3.83,0,0,0,.95-.38,34.73,34.73,0,0,0,3.85-2A19.44,19.44,0,0,1,346.39,432.33Z"/><path class="cls-4" d="M371.64,432.41c.46-.45.95-.42,1.48.11s.56,1,.11,1.48q-1.44,1.58-4.57,5.48a68.35,68.35,0,0,1-5.9,6.54,24,24,0,0,1-5.78,4.16,9.92,9.92,0,0,1-4.24,1,8.59,8.59,0,0,1-4.23-1q-4.15-2.12-4.31-8.32a23.82,23.82,0,0,1,1.85-9.83,27,27,0,0,1,5.48-8.54,15.67,15.67,0,0,1,9.07-5.22,7,7,0,0,1,4.2.68,3.74,3.74,0,0,1,2.16,3.1,5.42,5.42,0,0,1-.57,2.65A8.77,8.77,0,0,1,364.8,427a15.86,15.86,0,0,1-2.08,1.82,12.13,12.13,0,0,1-7.86,2.19h-.08a22.17,22.17,0,0,0-3.63,9c-.55,3.62-.27,6.17.84,7.63q2,2.42,8.16-3.1a64.16,64.16,0,0,0,5.86-6.12A81.87,81.87,0,0,1,371.64,432.41ZM358,427.12l-.9.9a9.91,9.91,0,0,0,3.7-1.47,6.46,6.46,0,0,0,2.42-2.76c.2-.45.28-.68.23-.68a3.1,3.1,0,0,1-.68.3,7.24,7.24,0,0,0-1.89,1.14A19.2,19.2,0,0,0,358,427.12Z"/><path class="cls-4" d="M193.35,464.56l-4,14.94H198l-.66,2.47h-8.86c-.88,0-1.45-.21-1.71-.65a2.19,2.19,0,0,1-.09-1.74l4-15Z"/><path class="cls-4" d="M202.89,471.26H201.2l2.69-5.59,2.16.6Zm1.38-4a1.41,1.41,0,0,1-.8-.22,1.18,1.18,0,0,1-.46-.61,1.57,1.57,0,0,1,0-.86,2,2,0,0,1,.46-.84,2.51,2.51,0,0,1,.78-.6,2,2,0,0,1,.92-.22,1.34,1.34,0,0,1,.79.22,1.17,1.17,0,0,1,.44.6,1.6,1.6,0,0,1,0,.84,2.16,2.16,0,0,1-.45.86,2.47,2.47,0,0,1-.76.61A1.94,1.94,0,0,1,204.27,467.26Z"/><path class="cls-4" d="M202.8,482l8.86-15.31a4.92,4.92,0,0,1,1.77-1.82,4.31,4.31,0,0,1,2.13-.6,2.81,2.81,0,0,1,1.84.6,2.4,2.4,0,0,1,.78,1.82l.66,15.31h-2.71l-.42-14.53c0-.53-.28-.8-.77-.8a1.36,1.36,0,0,0-1.2.8L205.48,482Zm14.35-4.26-10.2,0,.65-2.42h10.19Z"/><path class="cls-4" d="M232.57,471.47h-10l.6-2.23h10Zm-5.5,10.84a4.45,4.45,0,0,1-2.49-.62,2.83,2.83,0,0,1-1.19-1.73,5.29,5.29,0,0,1,.13-2.56l3.07-11.47h2.58l-3,11.39a2.25,2.25,0,0,0,.16,1.95,1.88,1.88,0,0,0,1.65.7,4.52,4.52,0,0,0,1.31-.21,5.68,5.68,0,0,0,1.25-.54l-.63,2.36a6.34,6.34,0,0,1-1.34.52A5.41,5.41,0,0,1,227.07,482.31Z"/><path class="cls-4" d="M238.93,482.26a5.65,5.65,0,0,1-3.22-.87,4.37,4.37,0,0,1-1.78-2.39,6.13,6.13,0,0,1,0-3.47,8.9,8.9,0,0,1,1.7-3.34,9.15,9.15,0,0,1,2.91-2.42,7.59,7.59,0,0,1,3.62-.9,5.07,5.07,0,0,1,3.08.85,3.94,3.94,0,0,1,1.55,2.28,6.29,6.29,0,0,1-.09,3.21l-.28,1H235.78l.75-1a4.72,4.72,0,0,0-.21,2.42,2.85,2.85,0,0,0,1.06,1.7,3.35,3.35,0,0,0,2.14.64,5.34,5.34,0,0,0,2.31-.52,5.6,5.6,0,0,0,2-1.56l1.71,1a8.64,8.64,0,0,1-3,2.49A7.9,7.9,0,0,1,238.93,482.26Zm-2.1-7.67h7.51a3.25,3.25,0,0,0-.05-1.79,2.2,2.2,0,0,0-1-1.2,3.38,3.38,0,0,0-1.75-.41,4.53,4.53,0,0,0-2,.44,4.88,4.88,0,0,0-1.63,1.22A6.33,6.33,0,0,0,236.83,474.59Z"/><path class="cls-4" d="M253.76,463.39h2.57l-5,18.58h-2.57Z"/><path class="cls-4" d="M259.73,469.24h2.58L258.89,482h-2.57Zm1.95-2.53a1.34,1.34,0,0,1-.77-.22,1.09,1.09,0,0,1-.46-.61,1.47,1.47,0,0,1,0-.86,2.17,2.17,0,0,1,.47-.85,2.68,2.68,0,0,1,.79-.63,2,2,0,0,1,.89-.23,1.32,1.32,0,0,1,.79.23,1.28,1.28,0,0,1,.43.63,1.64,1.64,0,0,1,0,.85,2.37,2.37,0,0,1-.45.86,2.33,2.33,0,0,1-.76.61A2,2,0,0,1,261.68,466.71Z"/><path class="cls-4" d="M269.21,482.26a5.67,5.67,0,0,1-3.22-.87,4.37,4.37,0,0,1-1.78-2.39,6.13,6.13,0,0,1,.05-3.47,8.9,8.9,0,0,1,1.7-3.34,9.15,9.15,0,0,1,2.91-2.42,7.59,7.59,0,0,1,3.62-.9,5.07,5.07,0,0,1,3.08.85,3.94,3.94,0,0,1,1.55,2.28,6.29,6.29,0,0,1-.09,3.21l-.28,1H266.07l.74-1a4.6,4.6,0,0,0-.2,2.42,2.79,2.79,0,0,0,1.05,1.7,3.35,3.35,0,0,0,2.14.64,5.34,5.34,0,0,0,2.31-.52,5.6,5.6,0,0,0,2-1.56l1.71,1a8.7,8.7,0,0,1-3,2.49A7.94,7.94,0,0,1,269.21,482.26Zm-2.1-7.67h7.51a3.25,3.25,0,0,0-.05-1.79,2.2,2.2,0,0,0-1-1.2,3.38,3.38,0,0,0-1.75-.41,4.53,4.53,0,0,0-2,.44,4.88,4.88,0,0,0-1.63,1.22A6.33,6.33,0,0,0,267.11,474.59Z"/><path class="cls-4" d="M281.12,482h-2.58l2-7.59a7.87,7.87,0,0,1,1.33-2.78,6.53,6.53,0,0,1,2.23-1.92,6.22,6.22,0,0,1,3-.71,5.62,5.62,0,0,1,1.18.12,3.9,3.9,0,0,1,1,.35L288.6,472a2.71,2.71,0,0,0-.89-.42,4.32,4.32,0,0,0-1-.13,3.36,3.36,0,0,0-2.23.82,4.31,4.31,0,0,0-1.34,2.23Z"/><path class="cls-4" d="M301.25,482.28a5.41,5.41,0,0,1-3.21-.91,4.63,4.63,0,0,1-1.78-2.41,5.79,5.79,0,0,1,0-3.33,9,9,0,0,1,1.79-3.46,9.36,9.36,0,0,1,3-2.38,8.08,8.08,0,0,1,3.66-.87,4.66,4.66,0,0,1,2.63.72,3.94,3.94,0,0,1,1.56,1.91,4.17,4.17,0,0,1,.08,2.6l-1.17-.68,2.73-10.08h2.57l-3.28,12.24A8.46,8.46,0,0,1,308,479a9.38,9.38,0,0,1-3.07,2.39A8.2,8.2,0,0,1,301.25,482.28Zm.65-2.41a5,5,0,0,0,2.32-.59,6.37,6.37,0,0,0,1.92-1.54,5.56,5.56,0,0,0,1.11-2.14,3.83,3.83,0,0,0,0-2.12,2.79,2.79,0,0,0-1.1-1.54,3.37,3.37,0,0,0-2-.57,5,5,0,0,0-2.3.57,6.31,6.31,0,0,0-1.92,1.54,5.53,5.53,0,0,0-1.13,2.12,3.8,3.8,0,0,0,0,2.14,3,3,0,0,0,1.09,1.54A3.26,3.26,0,0,0,301.9,479.87Z"/><path class="cls-4" d="M318.74,479.79a4.12,4.12,0,0,0,2.18-.61,5.63,5.63,0,0,0,1.67-1.63,7.07,7.07,0,0,0,1-2.18l1.64-6.13h2.58l-1.73,6.44a9.54,9.54,0,0,1-1.63,3.34,8.48,8.48,0,0,1-2.75,2.38,7.5,7.5,0,0,1-3.63.88,4.94,4.94,0,0,1-3.11-.89,4.07,4.07,0,0,1-1.47-2.39,7,7,0,0,1,.17-3.34l1.72-6.42H318l-1.65,6.16a5.34,5.34,0,0,0-.16,2.15,2.71,2.71,0,0,0,.79,1.63A2.55,2.55,0,0,0,318.74,479.79Z"/><path class="cls-4" d="M352.43,464.56l-.66,2.44H338.44l.65-2.44Zm-8,0h2.65L342.41,482h-2.66Z"/><path class="cls-4" d="M354.56,482.28a4.86,4.86,0,0,1-3-.91,4.4,4.4,0,0,1-1.62-2.43,6.22,6.22,0,0,1,.07-3.36,8.37,8.37,0,0,1,1.79-3.34,9.79,9.79,0,0,1,3.08-2.42,8,8,0,0,1,3.69-.9,5.68,5.68,0,0,1,3.23.87,4.5,4.5,0,0,1,1.79,2.38,5.91,5.91,0,0,1,0,3.41L361.82,482h-2.44l1.27-4.76,1.07-.67a7.77,7.77,0,0,1-1.5,2.91,8,8,0,0,1-2.53,2.07A6.64,6.64,0,0,1,354.56,482.28Zm1.05-2.44a5,5,0,0,0,2.31-.57,6.11,6.11,0,0,0,1.92-1.55A5.41,5.41,0,0,0,361,475.6a3.87,3.87,0,0,0,0-2.13,2.89,2.89,0,0,0-1.09-1.54,3.34,3.34,0,0,0-2-.59,4.9,4.9,0,0,0-2.31.59,6.62,6.62,0,0,0-1.92,1.54,5.49,5.49,0,0,0-1.13,2.13,3.82,3.82,0,0,0,0,2.12,2.91,2.91,0,0,0,1.1,1.55A3.32,3.32,0,0,0,355.61,479.84Z"/><path class="cls-4" d="M366.78,487.82H364.2l3.28-12.24a8.66,8.66,0,0,1,1.81-3.41,9.74,9.74,0,0,1,3.07-2.38,8.27,8.27,0,0,1,3.69-.87,5.51,5.51,0,0,1,3.22.9,4.51,4.51,0,0,1,1.77,2.42,5.92,5.92,0,0,1,0,3.34,9,9,0,0,1-1.78,3.44,9.23,9.23,0,0,1-3,2.39,8,8,0,0,1-3.67.87,4.66,4.66,0,0,1-2.63-.72,4,4,0,0,1-1.54-1.91,4.07,4.07,0,0,1-.07-2.59l1.14.68Zm6.34-7.95a4.86,4.86,0,0,0,2.3-.59,6.24,6.24,0,0,0,1.91-1.56,5.57,5.57,0,0,0,1.12-2.12,3.86,3.86,0,0,0,0-2.13,2.81,2.81,0,0,0-1.08-1.53,3.34,3.34,0,0,0-2-.57,4.92,4.92,0,0,0-2.3.57,6.3,6.3,0,0,0-1.92,1.53,5.49,5.49,0,0,0-1.13,2.13,3.82,3.82,0,0,0,0,2.12,3,3,0,0,0,1.09,1.56A3.26,3.26,0,0,0,373.12,479.87Z"/><path class="cls-4" d="M386.42,469.24H389L385.58,482H383Zm1.95-2.53a1.35,1.35,0,0,1-.78-.22,1.14,1.14,0,0,1-.46-.61,1.57,1.57,0,0,1,0-.86,2.15,2.15,0,0,1,.46-.85,2.82,2.82,0,0,1,.79-.63,2,2,0,0,1,.9-.23,1.31,1.31,0,0,1,.78.23,1.21,1.21,0,0,1,.43.63,1.45,1.45,0,0,1,0,.85,2.1,2.1,0,0,1-.45.86,2.33,2.33,0,0,1-.76.61A1.93,1.93,0,0,1,388.37,466.71Z"/><path class="cls-4" d="M394.52,482.26a5.61,5.61,0,0,1-2.92-.7,3.27,3.27,0,0,1-1.49-2.14l2.26-1.09a2.05,2.05,0,0,0,.9,1.35,3.38,3.38,0,0,0,1.73.39,4.65,4.65,0,0,0,1.38-.19,3,3,0,0,0,1.07-.59,1.84,1.84,0,0,0,.58-.93.88.88,0,0,0-.26-1,3.41,3.41,0,0,0-1.21-.53c-.51-.13-1.06-.26-1.66-.39a6,6,0,0,1-1.61-.58,2.48,2.48,0,0,1-1.06-1.09,2.7,2.7,0,0,1,0-1.9,4.49,4.49,0,0,1,1.14-2,6.11,6.11,0,0,1,2.06-1.38A6.61,6.61,0,0,1,398,469a5.52,5.52,0,0,1,2,.34,3.57,3.57,0,0,1,1.34.93,3.51,3.51,0,0,1,.72,1.31l-2.27,1.12a1.66,1.66,0,0,0-.83-1.17,3.16,3.16,0,0,0-1.52-.34,3.48,3.48,0,0,0-1.16.19,3,3,0,0,0-1,.56,1.89,1.89,0,0,0-.55.89.83.83,0,0,0,.28,1,3.63,3.63,0,0,0,1.2.54c.51.14,1.06.28,1.66.42a6.79,6.79,0,0,1,1.61.58,2.46,2.46,0,0,1,1.06,1.08,2.78,2.78,0,0,1,0,1.93,4.48,4.48,0,0,1-1.25,2.09,6.36,6.36,0,0,1-2.21,1.38A7.51,7.51,0,0,1,394.52,482.26Z"/><path class="cls-5" d="M19.48,396.15c2,.76,8,2.53,17.59-.83,1.69-.58,6.37-2.33,24.53-14.17,6.82-4.44,12.21-8.14,15.9-10.71"/><path class="cls-6" d="M59.63,453.2c-.76.23-1.18.17-1.25-.18a3.17,3.17,0,0,1,.28-1.62q.3-1.17.75-2.43c.3-.84.67-1.79,1.1-2.85s.73-1.85.92-2.38c1.06-2.84,2.16-5.49,3.28-7.93q1.92-4.23,7.37-14.74l3.08-6c.74-1.44,1.68-3.39,2.8-5.83s2-4.58,2.68-6.39,1.3-3.87,1.92-6.16A62,62,0,0,0,84,390.07c.17-1.38.28-2.28.32-2.69s.12-1.31.2-2.72a10.6,10.6,0,0,0-.14-3.17,12.86,12.86,0,0,0-1-2.49,5.5,5.5,0,0,0-1.81-2.2c-1.46-1-3.53-.93-6.23.1a35.32,35.32,0,0,0-8.17,4.72,88.88,88.88,0,0,0-12.49,11.46q-5.94,6.54-12.18,14.77a206.7,206.7,0,0,0-23.37,39.71c.9-2.53,1.8-4.92,2.68-7.19q8-21,23.55-48.38a3.23,3.23,0,0,0,.31-3,5.2,5.2,0,0,0-1.85-2.17,3.9,3.9,0,0,0-2.85-.58,3.66,3.66,0,0,0-2.59,1.71,254.79,254.79,0,0,0-19.55,38.24A280.55,280.55,0,0,0,5.24,467.22,217.13,217.13,0,0,0,.85,491.14,2.2,2.2,0,0,0,2,493.42a3.48,3.48,0,0,0,2.79.44,2.34,2.34,0,0,0,1.83-1.79q1.28-5.52,2.6-11.05a.89.89,0,0,0,.13-.24Q21,443,40.57,415.12a171.81,171.81,0,0,1,24.12-27.85,54,54,0,0,1,6.9-5.35,24.27,24.27,0,0,1,2.52-1.43c.86-.42,1.89-.85,3.09-1.31a3.27,3.27,0,0,1,2.84-.06c.69.41.94,1.26.76,2.55Q80,387.52,76,396.82a100.42,100.42,0,0,1-4.63,9.55q-2.76,5-6,10.64c-2.15,3.75-3.86,6.84-5.14,9.3a100,100,0,0,0-6.61,15.57,46.53,46.53,0,0,0-1.5,7.75c-.35,3.44.27,5.9,1.86,7.41A5,5,0,0,0,57,458.3a6.08,6.08,0,0,0,2.93-.5M42,388.79c4,1.53-2.35,13.39-6.23,13-3.58-.39,1.67-14.71,6.23-13"/><path class="cls-7" d="M59.63,453.2c-.76.23-1.18.17-1.25-.18a3.17,3.17,0,0,1,.28-1.62q.3-1.17.75-2.43c.3-.84.67-1.79,1.1-2.85s.73-1.85.92-2.38c1.06-2.84,2.16-5.49,3.28-7.93q1.92-4.23,7.37-14.74l3.08-6c.74-1.44,1.68-3.39,2.8-5.83s2-4.58,2.68-6.39,1.3-3.87,1.92-6.16A62,62,0,0,0,84,390.07c.17-1.38.28-2.28.32-2.69s.12-1.31.2-2.72a10.6,10.6,0,0,0-.14-3.17,12.86,12.86,0,0,0-1-2.49,5.5,5.5,0,0,0-1.81-2.2c-1.46-1-3.53-.93-6.23.1a35.32,35.32,0,0,0-8.17,4.72,88.88,88.88,0,0,0-12.49,11.46q-5.94,6.54-12.18,14.77a206.7,206.7,0,0,0-23.37,39.71c.9-2.53,1.8-4.92,2.68-7.19q8-21,23.55-48.38a3.23,3.23,0,0,0,.31-3,5.2,5.2,0,0,0-1.85-2.17,3.9,3.9,0,0,0-2.85-.58,3.66,3.66,0,0,0-2.59,1.71,254.79,254.79,0,0,0-19.55,38.24A280.55,280.55,0,0,0,5.24,467.22,217.13,217.13,0,0,0,.85,491.14,2.2,2.2,0,0,0,2,493.42a3.48,3.48,0,0,0,2.79.44,2.34,2.34,0,0,0,1.83-1.79q1.28-5.52,2.6-11.05a.89.89,0,0,0,.13-.24Q21,443,40.57,415.12a171.81,171.81,0,0,1,24.12-27.85,54,54,0,0,1,6.9-5.35,24.27,24.27,0,0,1,2.52-1.43c.86-.42,1.89-.85,3.09-1.31a3.27,3.27,0,0,1,2.84-.06c.69.41.94,1.26.76,2.55Q80,387.52,76,396.82a100.42,100.42,0,0,1-4.63,9.55q-2.76,5-6,10.64c-2.15,3.75-3.86,6.84-5.14,9.3a100,100,0,0,0-6.61,15.57,46.53,46.53,0,0,0-1.5,7.75c-.35,3.44.27,5.9,1.86,7.41A5,5,0,0,0,57,458.3a6.08,6.08,0,0,0,2.93-.5M42,388.79c4,1.53-2.35,13.39-6.23,13C32.19,401.36,37.44,387,42,388.79Z"/><path class="cls-6" d="M54.05,456.24A4.77,4.77,0,0,0,57,458.19a4.65,4.65,0,0,0,3-.44,12.59,12.59,0,0,0,3-2.41,34.3,34.3,0,0,0,2.59-2.89c.61-.8,1.31-1.77,2.11-2.92q4.2-6,11.88-19.43a205.35,205.35,0,0,1,12-19.23l.88-1.19,1-1.3c.11-.14.41-.52.88-1.14A9.89,9.89,0,0,1,95.41,406c.24-.22.57-.53,1-.94a6.73,6.73,0,0,1,1.18-.95,7.39,7.39,0,0,1,1.16-.58c.61-.31,1-.34,1.26-.08s0,1.48-.58,3.44q-1,3.27-1.93,6Q96.11,417.12,92.8,425t-4.62,11.86c-.72,2-1.18,3.24-1.37,3.8s-.58,1.81-1.17,3.74a26.66,26.66,0,0,0-1.08,4.46c-.13,1-.28,2.39-.48,4.06a17.32,17.32,0,0,0,0,4.55,16,16,0,0,0,1.08,4,8.15,8.15,0,0,0,2.94,4.06,6.52,6.52,0,0,0,4.27,1.29,8.53,8.53,0,0,0,2.15-.64,9.74,9.74,0,0,0,2.16-1.38,24.22,24.22,0,0,0,1.83-1.6l1.81-1.82a250.27,250.27,0,0,0,17.35-20.79,2.79,2.79,0,0,0,.35-2,2,2,0,0,0-1-1.44,1,1,0,0,0-1.42.44,167,167,0,0,1-15.81,18.53,11.77,11.77,0,0,1-.79.88c-.48.51-.89.91-1.23,1.21s-.81.72-1.39,1.27a7.87,7.87,0,0,1-1.51,1.18,13,13,0,0,1-1.4.65,1.78,1.78,0,0,1-1.33.08,1.9,1.9,0,0,1-.94-.92,4.13,4.13,0,0,1-.45-1.63,9.17,9.17,0,0,1,.06-2.07c.09-.77.18-1.43.26-2s.22-1.25.41-2.09.31-1.36.34-1.57c.22-1.12.47-2.24.74-3.36s.58-2.27.93-3.46.65-2.23.92-3.11.62-2,1.08-3.42.79-2.44,1-3.11.58-1.78,1.13-3.33.91-2.57,1.08-3.06c1-3.09,1.85-5.54,2.41-7.33s1.14-4.12,1.77-7a42.34,42.34,0,0,0,1-7.81c.09-3.32-.72-5.47-2.43-6.47s-4.21-.2-7.17,2.6a44.64,44.64,0,0,0-4.58,5.29c-1.6,2.13-2.85,3.9-3.72,5.29s-2.17,3.49-3.87,6.28q-1.53,2.48-5.57,9.49t-6.41,10.67a95.72,95.72,0,0,1-5.88,8.52c-1.82,2.11-3.31,3.34-4.49,3.68-.76.26-1.18.14-1.25-.34"/><path class="cls-7" d="M54.05,456.24A4.77,4.77,0,0,0,57,458.19a4.65,4.65,0,0,0,3-.44,12.59,12.59,0,0,0,3-2.41,34.3,34.3,0,0,0,2.59-2.89c.61-.8,1.31-1.77,2.11-2.92q4.2-6,11.88-19.43a205.35,205.35,0,0,1,12-19.23l.88-1.19,1-1.3c.11-.14.41-.52.88-1.14A9.89,9.89,0,0,1,95.41,406c.24-.22.57-.53,1-.94a6.73,6.73,0,0,1,1.18-.95,7.39,7.39,0,0,1,1.16-.58c.61-.31,1-.34,1.26-.08s0,1.48-.58,3.44q-1,3.27-1.93,6Q96.11,417.12,92.8,425t-4.62,11.86c-.72,2-1.18,3.24-1.37,3.8s-.58,1.81-1.17,3.74a26.66,26.66,0,0,0-1.08,4.46c-.13,1-.28,2.39-.48,4.06a17.32,17.32,0,0,0,0,4.55,16,16,0,0,0,1.08,4,8.15,8.15,0,0,0,2.94,4.06,6.52,6.52,0,0,0,4.27,1.29,8.53,8.53,0,0,0,2.15-.64,9.74,9.74,0,0,0,2.16-1.38,24.22,24.22,0,0,0,1.83-1.6l1.81-1.82a250.27,250.27,0,0,0,17.35-20.79,2.79,2.79,0,0,0,.35-2,2,2,0,0,0-1-1.44,1,1,0,0,0-1.42.44,167,167,0,0,1-15.81,18.53,11.77,11.77,0,0,1-.79.88c-.48.51-.89.91-1.23,1.21s-.81.72-1.39,1.27a7.87,7.87,0,0,1-1.51,1.18,13,13,0,0,1-1.4.65,1.78,1.78,0,0,1-1.33.08,1.9,1.9,0,0,1-.94-.92,4.13,4.13,0,0,1-.45-1.63,9.17,9.17,0,0,1,.06-2.07c.09-.77.18-1.43.26-2s.22-1.25.41-2.09.31-1.36.34-1.57c.22-1.12.47-2.24.74-3.36s.58-2.27.93-3.46.65-2.23.92-3.11.62-2,1.08-3.42.79-2.44,1-3.11.58-1.78,1.13-3.33.91-2.57,1.08-3.06c1-3.09,1.85-5.54,2.41-7.33s1.14-4.12,1.77-7a42.34,42.34,0,0,0,1-7.81c.09-3.32-.72-5.47-2.43-6.47s-4.21-.2-7.17,2.6a44.64,44.64,0,0,0-4.58,5.29c-1.6,2.13-2.85,3.9-3.72,5.29s-2.17,3.49-3.87,6.28q-1.53,2.48-5.57,9.49t-6.41,10.67a95.72,95.72,0,0,1-5.88,8.52c-1.82,2.11-3.31,3.34-4.49,3.68-.76.26-1.18.14-1.25-.34"/></g></g></svg>